<svg width="33" height="30" viewBox="0 0 33 30" fill="none" xmlns="http://www.w3.org/2000/svg">
<path d="M32.7602 4.31389C32.5643 4.0883 32.2735 3.9577 31.9682 3.9577H7.73012L6.83295 0.734152C6.71333 0.300785 6.30496 0 5.83678 0H1.03123C0.461992 0 0 0.443262 0 0.989424C0 1.53559 0.461992 1.97885 1.03123 1.97885H5.04479L5.93165 5.16677C5.93372 5.17864 5.92959 5.19052 5.93372 5.20437L9.23366 17.0379C9.23366 17.0399 9.23572 17.0399 9.23572 17.0418L10.3474 21.0332C10.467 21.4665 10.8754 21.7673 11.3436 21.7673H27.8433C28.4125 21.7673 28.8745 21.3241 28.8745 20.7779C28.8745 20.2317 28.4125 19.7885 27.8433 19.7885H12.1356L11.556 17.7067L29.9573 16.8182C30.4338 16.7945 30.8339 16.4601 30.9205 16.0089L32.983 5.12522C33.0386 4.83432 32.9562 4.5375 32.7602 4.31389ZM14.4373 12.8625C14.4373 13.4087 13.9753 13.8519 13.406 13.8519C12.8368 13.8519 12.3748 13.4087 12.3748 12.8625V8.90481C12.3748 8.35865 12.8368 7.91539 13.406 7.91539C13.9753 7.91539 14.4373 8.35865 14.4373 8.90481V12.8625ZM20.6247 12.8625C20.6247 13.4087 20.1627 13.8519 19.5934 13.8519C19.0242 13.8519 18.5622 13.4087 18.5622 12.8625V8.90481C18.5622 8.35865 19.0242 7.91539 19.5934 7.91539C20.1627 7.91539 20.6247 8.35865 20.6247 8.90481V12.8625ZM26.8121 12.8625C26.8121 13.4087 26.3501 13.8519 25.7808 13.8519C25.2116 13.8519 24.7496 13.4087 24.7496 12.8625V8.90481C24.7496 8.35865 25.2116 7.91539 25.7808 7.91539C26.3501 7.91539 26.8121 8.35865 26.8121 8.90481V12.8625Z" fill="white"/>
<path d="M14.2977 29.3335C16.0063 29.3335 17.3914 28.0046 17.3914 26.3652C17.3914 24.7259 16.0063 23.397 14.2977 23.397C12.5891 23.397 11.204 24.7259 11.204 26.3652C11.204 28.0046 12.5891 29.3335 14.2977 29.3335Z" fill="white"/>
<path d="M26.6727 29.3335C28.3813 29.3335 29.7664 28.0046 29.7664 26.3652C29.7664 24.7259 28.3813 23.397 26.6727 23.397C24.9641 23.397 23.579 24.7259 23.579 26.3652C23.579 28.0046 24.9641 29.3335 26.6727 29.3335Z" fill="white"/>
</svg>
